<svg xmlns="http://www.w3.org/2000/svg" width="48" height="48" viewBox="0 0 48 48">
  <g id="icon-location" transform="translate(-1092 -220)">
    <path id="Path_1" data-name="Path 1" d="M0,0H48V48H0Z" transform="translate(1092 220)" fill="none"/>
    <g id="Group_4" data-name="Group 4" transform="translate(-9)">
      <g id="Path_3" data-name="Path 3" transform="translate(1101 254)" fill="none">
        <path d="M15.5,0C24.06,0,31,3.1,31,6.917s-6.94,6.917-15.5,6.917S0,10.737,0,6.917,6.94,0,15.5,0Z" stroke="none"/>
        <path d="M 15.5 2.999999046325684 C 11.82589912414551 2.999999046325684 8.276670455932617 3.643499374389648 5.762380599975586 4.765488624572754 C 3.491550445556641 5.778839111328125 3 6.734539031982422 3 6.91680908203125 C 3 7.099079132080078 3.491550445556641 8.054779052734375 5.762380599975586 9.06812858581543 C 8.276670455932617 10.19011878967285 11.82589912414551 10.83361911773682 15.5 10.83361911773682 C 19.17409896850586 10.83361911773682 22.72332954406738 10.19011878967285 25.23761940002441 9.06812858581543 C 27.50844955444336 8.054779052734375 28 7.099079132080078 28 6.91680908203125 C 28 6.734539031982422 27.50844955444336 5.778839111328125 25.23761940002441 4.765488624572754 C 22.72332954406738 3.643499374389648 19.17409896850586 2.999999046325684 15.5 2.999999046325684 M 15.5 -9.5367431640625e-07 C 24.06040954589844 -9.5367431640625e-07 31 3.096758842468262 31 6.91680908203125 C 31 10.73685932159424 24.06040954589844 13.83361911773682 15.5 13.83361911773682 C 6.939590454101563 13.83361911773682 0 10.73685932159424 0 6.91680908203125 C 0 3.096758842468262 6.939590454101563 -9.5367431640625e-07 15.5 -9.5367431640625e-07 Z" stroke="none" fill="#142c5e"/>
      </g>
      <g id="Path_2" data-name="Path 2" transform="translate(1104 220.233)" fill="#fff">
        <path d="M 13 40.49099731445313 C 12.58498382568359 39.96390151977539 11.9110746383667 39.00249481201172 10.89743995666504 37.27944564819336 C 9.572159767150879 35.02664566040039 8.091119766235352 32.18564605712891 6.727129936218262 29.27978515625 C 3.454070091247559 22.30680656433105 1.5 16.43194580078125 1.5 13.56454563140869 C 1.5 10.33000564575195 2.704129934310913 7.292245864868164 4.890570163726807 5.010856151580811 C 7.060349941253662 2.746845960617065 9.940329551696777 1.500005960464478 13 1.500005960464478 C 16.05966949462891 1.500005960464478 18.93964958190918 2.746845960617065 21.10943031311035 5.010856151580811 C 23.29586982727051 7.292245864868164 24.5 10.33000564575195 24.5 13.56454563140869 C 24.5 16.43194580078125 22.54593086242676 22.30680656433105 19.27286911010742 29.27978515625 C 17.90888023376465 32.18564605712891 16.4278392791748 35.02664566040039 15.10256004333496 37.27944564819336 C 14.0889253616333 39.00249481201172 13.41501617431641 39.96390151977539 13 40.49099731445313 Z" stroke="none"/>
        <path d="M 13 2.999996185302734 C 7.485979080200195 2.999996185302734 3 7.739234924316406 3 13.56454658508301 C 3 16.11392593383789 4.87421989440918 21.73244667053223 7.891239166259766 28.22751617431641 C 9.191650390625 31.02703475952148 10.62417030334473 33.80985641479492 11.9249095916748 36.06334686279297 C 12.33698272705078 36.77724838256836 12.69402980804443 37.36603164672852 13 37.84987640380859 C 13.30597019195557 37.36603164672852 13.66301727294922 36.77724838256836 14.0750904083252 36.06334686279297 C 15.37582969665527 33.80985641479492 16.808349609375 31.02703475952148 18.10876083374023 28.22751617431641 C 21.12578010559082 21.73244667053223 23 16.11392593383789 23 13.56454658508301 C 23 7.739234924316406 18.51401901245117 2.999996185302734 13 2.999996185302734 M 13 -3.814697265625e-06 C 20.1796989440918 -3.814697265625e-06 26 6.073055267333984 26 13.56454658508301 C 26 21.0560359954834 14.87405014038086 42.45470428466797 13 42.45470428466797 C 11.12594985961914 42.45470428466797 0 21.0560359954834 0 13.56454658508301 C 0 6.073055267333984 5.82029914855957 -3.814697265625e-06 13 -3.814697265625e-06 Z" stroke="none" fill="#142c5e"/>
      </g>
      <g id="Ellipse_1" data-name="Ellipse 1" transform="translate(1111 227)" fill="none" stroke="#f54b88" stroke-width="3">
        <circle cx="6" cy="6" r="6" stroke="none"/>
        <circle cx="6" cy="6" r="4.5" fill="none"/>
      </g>
    </g>
  </g>
</svg>
