<svg xmlns="http://www.w3.org/2000/svg" width="48" height="48.258" viewBox="0 0 48 48.258">
  <g id="icon-camera" transform="translate(-1456 -329)">
    <path id="Path_1" data-name="Path 1" d="M0,0H48V48H0Z" transform="translate(1456 329)" fill="none"/>
    <g id="Group_5" data-name="Group 5" transform="translate(0 8)">
      <g id="Union_1" data-name="Union 1" transform="translate(1456 333)" fill="none">
        <path d="M5,36.258a5,5,0,0,1-5-5v-20a5,5,0,0,1,5-5h9.18L15.983,0h16.6l1.74,6.259H43a5,5,0,0,1,5,5v20a5,5,0,0,1-5,5Z" stroke="none"/>
        <path d="M 43.00020217895508 33.25830078125 C 44.10272979736328 33.25830078125 44.99970245361328 32.36133193969727 44.99970245361328 31.2588005065918 L 44.99970245361328 11.25810050964355 C 44.99970245361328 10.1555700302124 44.10272979736328 9.258600234985352 43.00020217895508 9.258600234985352 L 34.32011032104492 9.258600234985352 L 32.04042053222656 9.258600234985352 L 31.42975044250488 7.062220573425293 L 30.30031204223633 3.000000476837158 L 18.24091339111328 3.000000476837158 L 17.06304168701172 7.089010238647461 L 16.43807029724121 9.258600234985352 L 14.18026161193848 9.258600234985352 L 5.000401020050049 9.258600234985352 C 3.89738130569458 9.258600234985352 3.000001192092896 10.1555700302124 3.000001192092896 11.25810050964355 L 3.000001192092896 31.2588005065918 C 3.000001192092896 32.36133193969727 3.89738130569458 33.25830078125 5.000401020050049 33.25830078125 L 43.00020217895508 33.25830078125 M 43.00020217895508 36.25830078125 L 5.000401020050049 36.25830078125 C 2.238301277160645 36.25830078125 1.226806602971919e-06 34.02000045776367 1.226806602971919e-06 31.2588005065918 L 1.226806602971919e-06 11.25810050964355 C 1.226806602971919e-06 8.49690055847168 2.238301277160645 6.258600234985352 5.000401020050049 6.258600234985352 L 14.18026161193848 6.258600234985352 L 15.98310089111328 3.906249901319825e-07 L 32.58000183105469 3.906249901319825e-07 L 34.32011032104492 6.258600234985352 L 43.00020217895508 6.258600234985352 C 45.76140213012695 6.258600234985352 47.99970245361328 8.49690055847168 47.99970245361328 11.25810050964355 L 47.99970245361328 31.2588005065918 C 47.99970245361328 34.02000045776367 45.76140213012695 36.25830078125 43.00020217895508 36.25830078125 Z" stroke="none" fill="#142c5e"/>
      </g>
      <g id="Ellipse_2" data-name="Ellipse 2" transform="translate(1472 347)" fill="none" stroke="#f54b88" stroke-width="3">
        <circle cx="8" cy="8" r="8" stroke="none"/>
        <circle cx="8" cy="8" r="6.5" fill="none"/>
      </g>
      <line id="Line_4" data-name="Line 4" x2="9" transform="translate(1488.5 345.5)" fill="none" stroke="#142c5e" stroke-linecap="round" stroke-width="3"/>
    </g>
  </g>
</svg>
